<?xml version="1.0" encoding="utf-8"?>
<!-- Generator: Adobe Illustrator 27.9.1, SVG Export Plug-In . SVG Version: 6.00 Build 0)  -->
<svg version="1.1" id="Group_19519" xmlns="http://www.w3.org/2000/svg" xmlns:xlink="http://www.w3.org/1999/xlink" x="0px"
	 y="0px" viewBox="0 0 237.8 59.5" style="enable-background:new 0 0 237.8 59.5;" xml:space="preserve">
<style type="text/css">
	.st0{clip-path:url(#SVGID_00000156548423493530041890000006003942170258793094_);}
	.st1{fill-rule:evenodd;clip-rule:evenodd;fill:#519600;}
	.st2{fill-rule:evenodd;clip-rule:evenodd;fill:#001E6D;}
</style>
<g>
	<defs>
		<rect id="SVGID_1_" x="2" y="1.6" width="233" height="56.9"/>
	</defs>
	<clipPath id="SVGID_00000177451039565805534150000013587274968268736928_">
		<use xlink:href="#SVGID_1_"  style="overflow:visible;"/>
	</clipPath>
	<g id="Group_1" style="clip-path:url(#SVGID_00000177451039565805534150000013587274968268736928_);">
		<path id="Path_1" class="st1" d="M117.8,57.7l0.9-1.5c0.2,0.2,0.5,0.4,0.7,0.6c0.5,0.4,1.2,0.6,1.8,0.6c0.4,0,0.8-0.1,1.1-0.4
			c0.3-0.2,0.5-0.5,0.6-0.8c0.1-0.4,0-0.8-0.4-1c-0.1,0-0.6-0.3-1.4-0.7c-0.6-0.2-1.1-0.6-1.3-1.3c-0.2-0.4-0.2-0.9,0-1.3
			c0.3-1,1-1.9,1.9-2.4c0.8-0.4,1.6-0.6,2.5-0.6c1,0,1.9,0.2,2.8,0.6l-0.8,1.4c-0.5-0.5-1.3-0.8-2-0.9c-0.4,0-0.7,0.1-1.1,0.3
			c-0.3,0.2-0.6,0.4-0.7,0.8c-0.1,0.3,0,0.6,0.3,0.8c0.4,0.2,0.9,0.4,1.3,0.6c0.6,0.2,1.1,0.6,1.5,1.2c0.2,0.5,0.3,1.2,0.1,1.7
			c-0.3,1-0.9,1.9-1.8,2.4c-0.9,0.5-1.9,0.7-3,0.7C119.7,58.5,118.7,58.3,117.8,57.7"/>
		<path id="Path_2" class="st1" d="M130.7,57.4c-0.2,0.2-0.4,0.3-0.6,0.4v-1.2c0.2,0,0.3-0.1,0.4-0.2c0.3-0.2,0.5-0.6,0.6-1l0.6-2.2
			c-0.2,0-0.6,0.3-1.3,0.6h-0.2v-1.2c0.2-0.1,0.4-0.1,0.6-0.2c0.4-0.1,0.7-0.2,1.1-0.5c0.2-0.2,0.4-0.4,0.5-0.7
			c0.1-0.3,0-0.6-0.2-0.9c-0.3-0.2-0.6-0.3-1-0.3c-0.3,0-0.6,0-1,0.1v-1.2c0.7-0.1,1.4-0.2,2.1-0.2c0.8-0.1,1.6,0.1,2.3,0.6
			c0.5,0.4,0.6,1.1,0.4,1.7l-1.3,5c-0.1,0.4,0,0.6,0.3,0.6c0.2,0,0.4-0.1,0.6-0.2l-0.3,1.3c-0.5,0.2-0.8,0.3-1.1,0.4
			c-0.3,0.1-0.6,0.1-0.9,0.1c-0.5,0-0.9,0-1.1-0.2C130.9,58.1,130.8,57.8,130.7,57.4 M130.1,57.8c-0.1,0.2-0.3,0.3-0.5,0.4
			c-0.6,0.2-1.1,0.3-1.7,0.3c-0.6,0.1-1.2-0.1-1.5-0.6c-0.4-0.6-0.5-1.4-0.3-2.1c0.3-0.9,0.8-1.7,1.6-2.1c0.3-0.2,0.7-0.4,1.1-0.6
			c0.3-0.1,0.7-0.2,1.3-0.4v1.2c-0.3,0.2-0.6,0.4-0.9,0.7c-0.3,0.3-0.5,0.7-0.6,1.1c-0.1,0.4-0.1,0.7,0.1,0.9
			c0.1,0.3,0.4,0.4,0.7,0.4c0.2,0,0.5-0.1,0.7-0.2L130.1,57.8z M130.1,50.3c-0.1,0.1-0.1,0.1-0.2,0.1c-0.5,0.2-0.9,0.4-1.3,0.7v-1.4
			c0.5-0.2,1-0.4,1.5-0.5V50.3z"/>
		<path id="Path_3" class="st1" d="M141.2,46.1c-0.1,0.2-0.2,0.4-0.3,0.6l-3,11.2c0,0.2-0.1,0.4,0,0.6H135c0.1-0.2,0.2-0.4,0.2-0.6
			l3-11.2c0.1-0.2,0.1-0.4,0.1-0.6L141.2,46.1z"/>
		<path id="Path_4" class="st1" d="M145.2,58.4l0.3-1.1c-0.3,0.3-0.7,0.6-1.2,0.8c-0.6,0.3-1.2,0.4-1.8,0.4
			c-0.7,0.1-1.4-0.2-1.9-0.7c-0.3-0.6-0.4-1.4-0.1-2l1.6-6.1v-0.6h2.9c-0.1,0.2-0.2,0.4-0.2,0.6l-1.5,5.7c-0.1,0.3-0.1,0.6,0,1
			c0.2,0.2,0.6,0.3,0.9,0.3c0.4,0,0.8-0.1,1.2-0.4c0.3-0.2,0.5-0.6,0.6-1l1.5-5.6c0.1-0.2,0.1-0.4,0.1-0.6h2.9
			c-0.1,0.2-0.2,0.4-0.3,0.6l-2.2,8.1v0.6L145.2,58.4z"/>
		<path id="Path_5" class="st1" d="M155.3,57.3c-0.1,0.2-0.2,0.3-0.4,0.4v-1.1c0.2-0.2,0.4-0.3,0.5-0.5c0.5-0.8,0.8-1.7,1.1-2.6
			c0.3-0.8,0.4-1.6,0.3-2.4c-0.1-0.6-0.4-0.9-0.9-0.9c-0.3,0-0.5,0.1-0.8,0.2l-0.2,0.2V49h0.5c0.4,0,0.8,0,1.2,0.2
			c0.3,0.1,0.6,0.4,0.8,0.7l0.9-3.2c0-0.2,0.1-0.4,0-0.6h2.9c-0.1,0.2-0.2,0.4-0.2,0.6l-3.1,11.2v0.6h-2.7L155.3,57.3z M154.9,57.7
			c-0.2,0.2-0.4,0.3-0.6,0.4c-0.5,0.3-1.1,0.4-1.7,0.4c-0.9,0.1-1.8-0.5-2-1.3c-0.4-1.1-0.3-2.4,0.1-3.5c0.3-1.3,1-2.6,1.9-3.6
			c0.6-0.6,1.4-1.1,2.3-1.2v1.7c-0.2,0.1-0.3,0.3-0.5,0.5c-0.4,0.8-0.8,1.6-1,2.5c-0.2,0.8-0.4,1.7-0.4,2.5c0.1,0.2,0.2,0.4,0.3,0.6
			c0.2,0.2,0.4,0.2,0.7,0.2c0.2,0,0.5,0,0.7-0.2c0.1,0,0.1,0,0.2-0.1L154.9,57.7z"/>
		<path id="Path_6" class="st1" d="M169.7,57.4c-0.2,0.2-0.4,0.3-0.6,0.4v-1.2c0.1,0,0.2-0.1,0.3-0.2c0.3-0.2,0.6-0.6,0.7-1l0.6-2.2
			c-0.5,0.2-0.9,0.3-1.3,0.6h-0.2v-1.2c0.2-0.1,0.4-0.1,0.6-0.2c0.4-0.1,0.7-0.2,1-0.5c0.3-0.2,0.5-0.4,0.5-0.7
			c0.1-0.4,0.1-0.7-0.2-0.9c-0.3-0.2-0.6-0.3-1-0.3c-0.3,0-0.6,0-0.9,0.1v-1.2c0.7-0.1,1.4-0.2,2.1-0.2c0.8-0.1,1.6,0.1,2.3,0.6
			c0.4,0.5,0.6,1.1,0.4,1.7l-1.3,5c-0.2,0.4-0.1,0.6,0.3,0.6c0.2,0,0.4-0.1,0.6-0.2L173,58c-0.4,0.2-0.8,0.3-1,0.4
			c-0.3,0.1-0.6,0.1-1,0.1c-0.5,0-0.8,0-1-0.2C169.9,58.1,169.7,57.8,169.7,57.4 M169.1,57.8c-0.2,0.2-0.4,0.3-0.5,0.4
			c-0.6,0.2-1.1,0.3-1.7,0.3c-0.6,0.1-1.2-0.2-1.6-0.6c-0.4-0.6-0.4-1.4-0.2-2.1c0.2-0.9,0.8-1.6,1.5-2.1c0.4-0.3,0.8-0.4,1.1-0.6
			c0.3-0.1,0.8-0.2,1.4-0.4v1.2c-0.3,0.2-0.6,0.4-0.9,0.7c-0.3,0.3-0.5,0.7-0.6,1.1c-0.1,0.3-0.1,0.6,0,0.9c0.2,0.3,0.5,0.4,0.8,0.4
			c0.2,0,0.5-0.1,0.7-0.2L169.1,57.8z M169.1,50.3c-0.1,0-0.1,0-0.2,0.1c-0.5,0.2-1,0.4-1.4,0.7l0.1-1.4c0.5-0.2,1-0.4,1.5-0.5
			L169.1,50.3z"/>
		<path id="Path_7" class="st1" d="M176.4,49.2h2.8l-0.3,1.1c0.3-0.3,0.7-0.6,1.1-0.9c0.6-0.3,1.3-0.4,1.9-0.4
			c0.8-0.1,1.5,0.2,2,0.9c0.2,0.6,0.2,1.2,0,1.7l-1.6,6.3c-0.1,0.2-0.1,0.4-0.1,0.6h-2.9l0.3-0.6l1.5-5.8c0.2-0.9-0.1-1.2-0.9-1.2
			c-0.4,0-0.8,0.1-1.2,0.4c-0.4,0.3-0.6,0.7-0.7,1.2l-1.5,5.5c0,0.2-0.1,0.4,0,0.6H174c0.1-0.2,0.2-0.4,0.2-0.6l2.2-8.1
			C176.4,49.5,176.5,49.4,176.4,49.2"/>
		<path id="Path_8" class="st1" d="M188.6,46.7c1,0,1.3,0.3,1.2,1s-0.8,1-1.6,1c-1,0-1.4-0.3-1.3-1c0.1-0.3,0.3-0.5,0.6-0.7
			C187.8,46.7,188.2,46.6,188.6,46.7 M186.5,49.2h2.9l-0.3,0.6l-2.1,8.1c-0.1,0.2-0.1,0.4-0.1,0.6H184c0.1-0.2,0.2-0.4,0.3-0.6
			l2.1-8.1C186.5,49.6,186.5,49.4,186.5,49.2"/>
		<path id="Path_9" class="st1" d="M193.8,50.1c0.8-0.7,1.8-1.1,2.9-1.2c0.9-0.1,1.7,0.4,2,1.2c0.5-0.4,1-0.7,1.5-0.9
			c0.5-0.2,1-0.3,1.5-0.3c0.9,0,1.4,0.2,1.7,0.7c0.4,0.4,0.4,1,0.2,1.8l-1.7,6.4c0,0.2-0.1,0.4-0.1,0.6h-2.8
			c0.1-0.2,0.2-0.4,0.2-0.6l1.5-5.9c0.2-0.4,0.2-0.7,0-0.9c-0.1-0.2-0.3-0.3-0.7-0.3c-0.4,0-0.8,0.1-1.2,0.3c-0.3,0.3-0.5,0.6-0.6,1
			l-1.5,5.8c-0.1,0.2-0.1,0.4-0.1,0.6H194c0.1-0.2,0.1-0.4,0.2-0.6l1.5-5.9c0.2-0.4,0.2-0.7,0-0.9c-0.2-0.2-0.4-0.3-0.7-0.3
			c-0.4,0-0.7,0.1-1.1,0.3c-0.3,0.3-0.5,0.6-0.6,1l-1.6,5.8v0.6h-2.9c0.1-0.2,0.2-0.4,0.2-0.6l2.2-8.1c0.1-0.2,0.1-0.4,0.1-0.6h2.7
			L193.8,50.1z"/>
		<path id="Path_10" class="st1" d="M208.4,57.4c-0.1,0.2-0.3,0.3-0.5,0.4v-1.2c0.1,0,0.2-0.1,0.3-0.2c0.3-0.2,0.5-0.6,0.6-1
			l0.7-2.2c-0.5,0.2-1,0.4-1.4,0.6H208v-1.2c0.2-0.1,0.4-0.1,0.6-0.2c0.4-0.1,0.7-0.2,1-0.5c0.2-0.2,0.4-0.4,0.5-0.7
			c0.1-0.3,0-0.6-0.2-0.9c-0.3-0.2-0.6-0.3-1-0.3c-0.3,0-0.6,0-0.9,0.1v-1.2c0.7-0.1,1.3-0.2,2-0.2c0.8-0.1,1.6,0.1,2.3,0.6
			c0.5,0.4,0.6,1.1,0.4,1.7l-1.3,5c-0.1,0.4,0,0.6,0.3,0.6c0.2,0,0.5-0.1,0.7-0.2l-0.4,1.3c-0.3,0.2-0.7,0.3-1.1,0.4
			c-0.3,0.1-0.6,0.1-0.9,0.1c-0.4,0-0.7,0-1.1-0.2C208.7,58.1,208.5,57.8,208.4,57.4 M208,57.8c-0.2,0.2-0.4,0.3-0.6,0.4
			c-0.6,0.2-1.1,0.3-1.7,0.3c-0.6,0.1-1.1-0.2-1.5-0.6c-0.4-0.6-0.5-1.4-0.2-2.1c0.2-0.9,0.8-1.6,1.5-2.1c0.4-0.3,0.8-0.4,1.1-0.6
			c0.3-0.1,0.8-0.2,1.4-0.4v1.2c-0.3,0.2-0.6,0.4-0.9,0.7c-0.3,0.3-0.5,0.7-0.6,1.1c-0.1,0.3-0.1,0.6,0,0.9c0.1,0.2,0.4,0.4,0.7,0.4
			c0.3,0,0.5-0.1,0.8-0.2L208,57.8z M208,50.3c-0.1,0-0.2,0.1-0.3,0.1c-0.3,0.1-0.8,0.4-1.3,0.7l0.1-1.4c0.5-0.2,1-0.4,1.5-0.5
			L208,50.3z"/>
		<path id="Path_11" class="st1" d="M218.8,46.1c-0.1,0.2-0.1,0.4-0.2,0.6l-2.9,11.2c-0.1,0.2-0.1,0.4-0.1,0.6h-2.9
			c0.1-0.2,0.2-0.4,0.3-0.6l3-11.2c0-0.2,0.1-0.4,0-0.6L218.8,46.1z"/>
		<path id="Path_12" class="st2" d="M82.9,14.1l3.6-5.8C86.7,8,86.9,7.6,87,7.2c0.1-0.1,0.1-0.2,0.1-0.3h7.4
			c-0.1,0.4-0.2,0.9-0.1,1.3l2.9,31.3c0.1,0.6,0.3,1.1,0.6,1.6h-10c0.1-0.1,0.1-0.2,0.1-0.4c0.1-0.4,0.2-0.8,0.1-1.3l-0.6-8.1h-4.6
			v-3.9h4.3l-0.9-12.8l-3.5,5.7L82.9,14.1z M76,31.4l-5.1,8.1c-0.3,0.4-0.4,0.8-0.6,1.3c0,0.1,0,0.3-0.1,0.4h-4.7
			c0.5-0.5,0.9-1,1.3-1.6l16.1-25.4v6.4l-4.4,7.1h4.4v3.9L76,31.4z"/>
		<path id="Path_13" class="st2" d="M107.4,32.4l10.9-17.3c0.3-0.4,0.5-0.9,0.7-1.3c0-0.1,0-0.2,0.1-0.3h4.5
			c-0.5,0.5-0.9,1.1-1.3,1.6l-15.4,24.4c-0.3,0.4-0.5,0.9-0.7,1.3v0.3h-6.6c0.1-0.5,0.2-1.1,0.1-1.6l-2-24.4
			c-0.1-0.6-0.2-1.1-0.4-1.6h9.5c-0.1,0.2-0.1,0.4-0.2,0.6c-0.1,0.3-0.1,0.7-0.1,1.1L107.4,32.4z"/>
		<path id="Path_14" class="st2" d="M130.3,5.9c2.8,0,4,0.9,3.5,2.8c-0.5,1.9-2.2,2.9-5,2.9c-2.9,0-4.1-1-3.7-2.8
			c0.3-0.9,0.9-1.7,1.7-2.1C127.9,6.2,129.1,5.9,130.3,5.9 M123.8,13.4h8.7c-0.3,0.5-0.6,1.1-0.8,1.7l-6.5,24.3
			c-0.2,0.6-0.2,1.1-0.2,1.7h-8.7c0.3-0.5,0.6-1.1,0.8-1.7l6.5-24.3C123.9,14.6,123.9,14,123.8,13.4"/>
		<path id="Path_15" class="st2" d="M141.9,16.3c2.3-2.3,5.4-3.5,8.6-3.6c3.3,0,5.3,1.2,6.3,3.6c1.4-1.1,3-2.1,4.6-2.8
			c1.5-0.5,3.1-0.8,4.7-0.8c2.4,0,4.1,0.7,5.2,1.9c1,1.3,1.2,3.2,0.5,5.6l-5.2,19.1c-0.2,0.6-0.3,1.1-0.2,1.7h-8.7
			c0.3-0.5,0.6-1.1,0.8-1.7l4.7-17.5c0.4-0.9,0.4-1.9,0-2.8c-0.3-0.6-1.1-0.9-2.3-0.9c-1.1,0-2.3,0.4-3.2,1.1
			c-0.9,0.7-1.6,1.7-1.8,2.8l-4.7,17.3c-0.1,0.6-0.2,1.1-0.2,1.7h-8.7c0.3-0.5,0.6-1.1,0.8-1.7l4.8-17.6c0.3-0.9,0.3-1.8-0.1-2.7
			c-0.5-0.6-1.4-1-2.2-0.9c-1.1,0-2.3,0.4-3.2,1.1c-0.9,0.7-1.5,1.6-1.7,2.7l-4.8,17.4c-0.1,0.6-0.2,1.2-0.1,1.7h-8.7
			c0.3-0.5,0.5-1.1,0.7-1.7l6.6-24.3c0.1-0.6,0.2-1.1,0.2-1.7h8.1L141.9,16.3z"/>
		<path id="Path_16" class="st2" d="M194,39.2c-1.8,0.8-3.7,1.4-5.6,1.9l-1.7,0.3V38c2.8-0.4,5.4-1.6,7.7-3.3L194,39.2z M186.7,13
			c1.1-0.2,2.2-0.2,3.3-0.2c5.4,0,8.6,2.1,9.3,6.4c0.4,2.7,0.1,5.4-0.7,8h-11.9v-3.6h4.3c0.3-1.2,0.4-2.4,0.5-3.7
			c0.1-1-0.1-2-0.8-2.8c-0.5-0.7-1.4-1-2.2-1c-0.6,0-1.3,0.1-1.8,0.4L186.7,13z M186.7,41.4c-1.1,0.1-2.2,0.2-3.5,0.2
			c-4.9,0-8.3-1.3-10.1-4c-1.7-2.4-2-5.8-0.9-10c1-4.4,3.5-8.3,6.9-11.2c2.2-1.8,4.7-3,7.5-3.5v3.7c-0.7,0.4-1.4,0.9-1.9,1.5
			c-1.3,1.6-2.3,3.5-2.9,5.5h4.8v3.6h-5.9c-0.7,2-1,4.2-0.9,6.4c0.3,3,2.2,4.5,5.6,4.5c0.4,0,0.8,0,1.2-0.1L186.7,41.4z"/>
		<path id="Path_17" class="st2" d="M205.6,27.8L202,15.1c-0.2-0.6-0.4-1.1-0.7-1.6h9.7c-0.1,0.6,0,1.1,0.2,1.6l2.1,6.9l6.4-6.9
			c0.5-0.5,0.8-1,1.1-1.6h4.8c-0.6,0.5-1.2,1-1.7,1.6l-9.6,10.8l3.8,13.7c0.2,0.6,0.4,1.1,0.7,1.6h-9.6c0.1-0.6,0-1.1-0.2-1.6
			l-2.3-8.1l-7.5,8.1c-0.4,0.5-0.8,1-1.2,1.6h-4.7c0.6-0.5,1.1-1,1.6-1.6L205.6,27.8z"/>
		<path id="Path_18" class="st2" d="M230.4,12.7L230.4,12.7c0.5,0,1.1,0.1,1.5,0.3c0.5,0.2,0.9,0.5,1.3,0.8c0.5,0.4,1,1,1.2,1.6
			c0.3,0.6,0.5,1.2,0.5,1.9c0,0.6-0.1,1.3-0.4,1.8c-0.2,0.6-0.6,1.1-1,1.5c-0.5,0.4-1,0.7-1.5,1c-0.6,0.2-1.1,0.3-1.7,0.3v-0.4
			c1.1,0,2.2-0.5,3-1.2c0.8-0.8,1.2-1.9,1.2-3c0-1.1-0.4-2.1-1.2-2.9c-0.8-0.8-1.9-1.3-3-1.2L230.4,12.7z M230.4,18
			c0.4,0,0.8,0.2,1.1,0.5c0.3,0.4,0.4,0.9,0.4,1.4h1.1v-0.2c0-0.5-0.1-1-0.3-1.4c-0.3-0.3-0.7-0.5-1.1-0.7c0.4-0.1,0.7-0.2,1.1-0.5
			c0.2-0.3,0.4-0.6,0.4-1c0-0.5-0.2-0.9-0.7-1.2c-0.5-0.3-1.1-0.4-1.7-0.4h-0.2v0.9c0.4,0,0.8,0,1.2,0.1c0.2,0.1,0.3,0.4,0.3,0.6
			c0,0.3-0.1,0.6-0.4,0.8c-0.3,0.1-0.7,0.2-1.1,0.2V18z M225.8,17.3c0-0.5,0.1-1,0.3-1.5c0.2-0.5,0.4-1,0.8-1.3
			c0.4-0.5,0.9-0.9,1.5-1.2c0.6-0.3,1.3-0.5,2-0.5v0.5c-1.1,0-2.2,0.4-2.9,1.2c-0.8,0.7-1.3,1.8-1.3,2.9c0,1.1,0.4,2.2,1.2,3
			c0.8,0.8,1.9,1.2,3,1.2v0.4c-0.6,0-1.2-0.1-1.7-0.3c-0.6-0.2-1.1-0.6-1.5-1c-0.4-0.5-0.7-1-1-1.5
			C225.9,18.6,225.7,17.9,225.8,17.3 M230.4,14.6h-2v5.3h1V18h1.1v-0.9h-1.1v-1.6h1.1L230.4,14.6z"/>
		<path id="Path_19" class="st1" d="M32.8,1.6c13.9-0.3,23.9,3,30.6,8c2.2,1.5,3.8,3.8,4.5,6.4c2.8,10-9.8,22.5-27.9,27.8
			c-8.8,2.5-17.4,2.9-24.2,1.5c6.8-5.1,13.9-7.4,25.3-9.5l2.8-4.7c-20.5,1.8-29.2,7.8-34.1,12.2c-1-0.4-1.9-1-2.8-1.6
			c6.4-8,21.7-13.4,38.9-13.9l2.8-4.5c-19.3-0.7-37.9,5-45.1,14.8c-0.6-1-1.2-2.1-1.5-3.2C10.2,24,28.4,19,50.8,19.9l2.6-4.4
			c-19.6-2.4-39.3,1-50,9.1L15.5,4.5C21.1,2.9,26.9,1.9,32.8,1.6"/>
	</g>
</g>
</svg>
